<svg xmlns="http://www.w3.org/2000/svg" xmlns:xlink="http://www.w3.org/1999/xlink" width="30" height="19" viewBox="0 0 30 19"><defs><path id="1od2a" d="M811 681.503v5.016c0 .26-.21.47-.47.47h-1.535v.032a2.98 2.98 0 0 1-2.974 2.978 2.98 2.98 0 0 1-2.975-2.978v-.031H792.46l.001.03a2.98 2.98 0 0 1-2.975 2.98 2.98 2.98 0 0 1-2.975-2.98l.001-.03h-2.537a.973.973 0 0 1-.97-.973v-1.034h-1.535a.47.47 0 0 1 0-.94h4.51a.47.47 0 0 1 0 .94h-2.036v1.034c0 .018.014.032.03.032h2.7a2.98 2.98 0 0 1 2.812-2.007c1.3 0 2.408.84 2.812 2.007h9.746v-3.543a.47.47 0 1 1 .94 0v3.543h.225a2.98 2.98 0 0 1 2.812-2.007c1.3 0 2.408.84 2.811 2.007h1.228v-2.07h-.532a1.474 1.474 0 0 1-1.472-1.473v-1.003c0-.26.21-.47.47-.47h1.46a1.537 1.537 0 0 0-1.46-1.066h-5.542v.533a.47.47 0 1 1-.94 0v-8.528a.031.031 0 0 0-.032-.032h-18.037a.031.031 0 0 0-.031.032v8.527a.47.47 0 1 1-.94 0v-8.527c0-.537.436-.973.97-.973h18.038c.536 0 .971.436.971.973v1.034h3.539c1.088 0 1.973.886 1.973 1.975v.502a.47.47 0 0 1-.372.46l.777 3.111a2.48 2.48 0 0 1 2.1 2.449zm-8.017-6.49h4.572v-.032c0-.57-.463-1.034-1.033-1.034h-3.539zm0 4.013h4.941l-.767-3.072h-4.174zm-11.461 7.995a2.04 2.04 0 0 0-2.036-2.038 2.04 2.04 0 0 0 0 4.076 2.039 2.039 0 0 0 2.036-2.038zm16.534 0a2.04 2.04 0 0 0-2.035-2.038 2.04 2.04 0 0 0 0 4.076 2.039 2.039 0 0 0 2.035-2.038zm2.004-3.982v-1.066h-1.064v.533c0 .294.239.533.532.533zm-19.603 3.982a.973.973 0 0 1-.97.972.973.973 0 0 1 0-1.944c.535 0 .97.436.97.972zm16.535 0a.973.973 0 0 1-.971.972.973.973 0 0 1 0-1.944c.535 0 .97.436.97.972zm-6.013-2.508c0 .26-.21.47-.47.47h-7.014a.47.47 0 0 1 0-.94h7.014c.26 0 .47.21.47.47zm-12.025-2.007c0 .26-.21.47-.47.47h-6.012a.47.47 0 0 1 0-.94h6.012c.26 0 .47.21.47.47zm8.38-6.189l-4.51 4.515a.468.468 0 0 1-.664 0l-2.505-2.508a.471.471 0 0 1 .665-.665l2.173 2.175 4.177-4.182a.47.47 0 1 1 .664.665z"/></defs><g><g transform="translate(-781 -671)"><use fill="#fff" xlink:href="#1od2a"/></g></g></svg>