<svg xmlns="http://www.w3.org/2000/svg" xmlns:xlink="http://www.w3.org/1999/xlink" width="30" height="30" viewBox="0 0 30 30"><defs><path id="1lcpa" d="M421 582c0 8.27-6.729 15-15 15s-15-6.73-15-15c0-8.272 6.729-15 15-15s15 6.728 15 15zm-1.918 0c0-7.214-5.869-13.082-13.082-13.082-7.213 0-13.082 5.868-13.082 13.081 0 7.214 5.869 13.082 13.082 13.082 7.213 0 13.082-5.868 13.082-13.082zm-8.056-3.013a5.035 5.035 0 0 1-4.067 4.935v2.82a.96.96 0 1 1-1.918 0v-3.688c0-.53.43-.959.959-.959a3.111 3.111 0 0 0 3.107-3.108A3.111 3.111 0 0 0 406 575.88a3.111 3.111 0 0 0-3.108 3.107.96.96 0 1 1-1.918 0 5.032 5.032 0 0 1 5.026-5.025 5.032 5.032 0 0 1 5.026 5.025zm-4.348 10.478a.962.962 0 0 1-.678 1.638.962.962 0 0 1-.96-.959c0-.253.103-.5.282-.679a.966.966 0 0 1 .678-.28c.253 0 .5.102.678.28z"/></defs><g><g transform="translate(-391 -567)"><use fill="#fff" xlink:href="#1lcpa"/></g></g></svg>