<svg xmlns="http://www.w3.org/2000/svg" xmlns:xlink="http://www.w3.org/1999/xlink" width="30" height="30" viewBox="0 0 30 30"><defs><path id="yaj3a" d="M794 591v-3c0-.3.2-.5.5-.5s.5.2.5.5v3c0 .3-.2.5-.5.5s-.5-.2-.5-.5zm3 0v-3c0-.3.2-.5.5-.5s.5.2.5.5v3c0 .3-.2.5-.5.5s-.5-.2-.5-.5zm14-7c0 1.889-.355 3.699-1 5.368v.032l-.05.1a14.625 14.625 0 0 1-2.343 4h.043l-.8.85a14.786 14.786 0 0 1-8.35 4.444v.006l-.099.01a15.188 15.188 0 0 1-2.693.186 15.19 15.19 0 0 1-2.11-.186l-.098-.01v-.006a14.785 14.785 0 0 1-8.35-4.444l-.8-.85h.043a14.622 14.622 0 0 1-2.343-4l-.05-.1v-.032a14.859 14.859 0 0 1-.568-1.805l-.032-.064c-.12-.483-.209-.999-.265-1.495A14.983 14.983 0 0 1 781 584c0-8.25 6.75-15 15-15s15 6.75 15 15zm-28.725 2.755l3.452-4.326a10.558 10.558 0 0 1-.727-1.18c-.3.55-.75 1.3-1.55 2.3-.6.7-1.15 1.4-1.35 2.1a13.854 13.854 0 0 0 .175 1.105zm.689.682c.119.029.247.049.384.057l4.273-2.403c-.26-.464-.64-.944-1.021-1.442l-.1-.15a49.486 49.486 0 0 1-.17-.229zm7.036 2.062h1.15c.042 0 .08-.001.116-.004a.538.538 0 0 1 .134-.046c.1-.05.2-.05.35-.35.015-.03.028-.061.041-.091l.014-.035.013-.039c.084-.256.063-.504-.039-.767-.12-.292-.348-.616-.679-1.018a1.983 1.983 0 0 1-.055-.115l-.145-.185-.1-.1c-.5-.65-.8-1.15-1.05-1.5-.2.4-.55.9-1.05 1.5-.85 1-1.25 1.7-.9 2.35.15.35.65.4.85.4h.35v-1c0-.3.2-.5.5-.5s.5.2.5.5zm-2 1v3h3v-3zm-.126-4.37l-2.435 1.37h1.468c.263-.543.66-1.015.967-1.37zm-2.133 7.37H787v-3.683c-.06-.083-.11-.171-.15-.266a2.05 2.05 0 0 1-.22-1.05H783v.68a14.067 14.067 0 0 0 2.74 4.32zm11.759 4c0-.85-.65-1.5-1.5-1.5s-1.5.65-1.5 1.5v.4c1 .1 2 .1 3 0zm7.734-3h-18.468a13.978 13.978 0 0 0 6.734 3.275v-.275c0-1.4 1.1-2.5 2.5-2.5s2.5 1.1 2.5 2.5v.275a13.978 13.978 0 0 0 6.734-3.275zm-12.634-4.95c-.141.283-.314.549-.6.727v3.223h8v-3.191c-.315-.173-.501-.44-.65-.709-.564-1.127 0-2.104.65-2.963v-1.637h-8v1.65c.438.578.835 1.21.851 1.904a1.85 1.85 0 0 1-.251.996zm3.4-12.05l-3.631 6.5h3.131v-1c0-.3.2-.5.5-.5s.5.2.5.5v1h3.131zm0-1c.85 0 1.5-.65 1.5-1.5s-.65-1.5-1.5-1.5-1.5.65-1.5 1.5.65 1.5 1.5 1.5zm8.25 12.6c.06-.12.096-.239.111-.36a1.214 1.214 0 0 0-.111-.54l-.071-.2a6.123 6.123 0 0 0-.88-1.25c-.05-.05-.1-.1-.1-.15l-.113-.151c-.4-.48-.67-.908-.836-1.199-.2.4-.55.9-1 1.5l-.1.1c-.75.95-1.2 1.6-.85 2.25.092.185.166.294.29.35h.01a.512.512 0 0 1 .085.031 1 1 0 0 0 .215.02h1.1v-1c0-.3.2-.5.5-.5s.5.2.5.5v1h.4c.2 0 .7-.05.85-.4zm-3.25 1.4v3h3v-3zm8-2h-3.65c.05.35-.05.75-.2 1.05a.642.642 0 0 1-.1.149 1.2 1.2 0 0 1-.05.079v3.722h1.26a14.067 14.067 0 0 0 2.74-4.319zm.9-2.85c-.2-.7-.75-1.4-1.35-2.1-.8-1-1.3-1.75-1.55-2.3-.3.55-.75 1.3-1.5 2.25l-.1.15c-.65.85-1.3 1.65-1.35 2.4l.05.05c.3.4.7.9.95 1.4h1.45V586c0-.3.2-.5.5-.5s.5.2.5.5v1.5h1c.492 0 .887-.145 1.138-.34a13.825 13.825 0 0 0 .262-1.51zm.097-1.864C809.882 576.183 803.628 570 796 570c-7.61 0-13.853 6.154-13.996 13.732.205-.283.425-.56.646-.833 1.2-1.4 1.55-2.3 1.7-2.7.15-.25.25-.55.65-.6.35 0 .5.3.6.55.2.4.55 1.3 1.7 2.7l.1.15c.506.664 1.012 1.308 1.303 1.983l.002.003c.26-.419.387-.712.445-.886.05-.2.2-.5.55-.5.35 0 .5.3.6.5.111.222.277.636.7 1.262v-.862c0-.175.069-.316.186-.403l3.8-6.805A2.473 2.473 0 0 1 793.5 575c0-1.229.847-2.226 2-2.452V571c0-.3.2-.5.5-.5s.5.2.5.5v1.548c1.153.226 2 1.223 2 2.452 0 1.037-.604 1.909-1.486 2.291l3.84 6.84a.497.497 0 0 1 .146.368v.837c.386-.584.543-.974.65-1.186.1-.2.25-.5.6-.5s.5.3.55.5c.06.18.194.488.476.934.287-.694.805-1.354 1.324-2.035l.1-.15c1.1-1.45 1.5-2.3 1.7-2.7.1-.25.25-.55.6-.55s.5.3.6.55c.15.4.55 1.3 1.7 2.7.235.29.475.585.697.886z"/></defs><g><g transform="translate(-781 -569)"><use fill="#fff" xlink:href="#yaj3a"/></g></g></svg>