<svg xmlns="http://www.w3.org/2000/svg" xmlns:xlink="http://www.w3.org/1999/xlink" width="29" height="30" viewBox="0 0 29 30"><defs><path id="i41ea" d="M420 475.64v19.982a.885.885 0 0 1-.885.884h-5.428c-.87 3.717-4.21 6.493-8.187 6.493-3.978 0-7.317-2.776-8.187-6.493h-5.429a.884.884 0 0 1-.884-.884V475.64c0-.488.396-.884.884-.884h6.015v-.872a.884.884 0 0 1 1.77 0v.872h4.946v-.872a.884.884 0 0 1 1.77 0v.872h5.166v-.872a.884.884 0 0 1 1.77 0v.872h5.795c.488 0 .884.396.884.884zm-27.231.885v3.616h25.462v-3.616h-4.91v.799a.884.884 0 0 1-1.77 0v-.8h-5.167v.8a.884.884 0 0 1-1.769 0v-.8h-4.947v.8a.885.885 0 0 1-1.769 0v-.8zm19.372 18.066c0-3.662-2.98-6.641-6.641-6.641a6.649 6.649 0 0 0-6.641 6.64c0 3.662 2.979 6.64 6.64 6.64a6.648 6.648 0 0 0 6.642-6.64zm6.09.147V481.91h-25.462v12.828h4.325c-.001-.05-.004-.098-.004-.147 0-4.637 3.773-8.41 8.41-8.41 4.637 0 8.41 3.773 8.41 8.41 0 .049-.003.098-.004.147zm-10.073 1.85a.884.884 0 1 1-1.25 1.25l-2.034-2.033a.885.885 0 0 1-.259-.625v-4.645a.885.885 0 0 1 1.77 0v4.279z"/></defs><g><g transform="translate(-391 -473)"><use fill="#fff" xlink:href="#i41ea"/></g></g></svg>