<svg xmlns="http://www.w3.org/2000/svg" xmlns:xlink="http://www.w3.org/1999/xlink" width="30" height="30" viewBox="0 0 30 30"><defs><path id="3mlia" d="M405.004 675.011a2.994 2.994 0 0 1-2.991 2.991 2.994 2.994 0 0 1-2.991-2.99c0-1.65 1.342-2.992 2.99-2.992a2.994 2.994 0 0 1 2.992 2.991zm-1.994 0a.998.998 0 0 0-1.994 0 .998.998 0 0 0 1.994 0zm9.97 7.977c0 1.649-1.342 2.99-2.991 2.99a2.994 2.994 0 0 1-2.991-2.99 2.994 2.994 0 0 1 2.99-2.991 2.994 2.994 0 0 1 2.992 2.99zm-1.994 0a.998.998 0 0 0-1.994 0 .998.998 0 0 0 1.994 0zm-.05-7.513l-8.46 8.46a.994.994 0 0 1-1.41 0 .997.997 0 0 1 0-1.41l8.46-8.46a.997.997 0 1 1 1.41 1.41zM421 679c0 8.272-6.729 15-15 15-2.69 0-5.313-.718-7.618-2.083l-6.006 2.029a1.042 1.042 0 0 1-1.264-1.453l2.513-5.026a14.848 14.848 0 0 1-2.623-8.467c0-8.27 6.728-15 14.999-15 8.27 0 14.999 6.73 14.999 15zm-2.083 0c0-7.122-5.794-12.917-12.916-12.917-7.122 0-12.917 5.795-12.917 12.917 0 2.816.894 5.494 2.586 7.744.237.316.275.739.099 1.092l-1.664 3.327 4.073-1.375a1.046 1.046 0 0 1 .894.109 12.852 12.852 0 0 0 6.929 2.02c7.122 0 12.916-5.794 12.916-12.917z"/></defs><g><g transform="translate(-391 -664)"><use fill="#fff" xlink:href="#3mlia"/></g></g></svg>