<svg xmlns="http://www.w3.org/2000/svg" xmlns:xlink="http://www.w3.org/1999/xlink" width="21" height="30" viewBox="0 0 21 30"><defs><path id="e463a" d="M806 474.522v26.955c0 .84-.66 1.522-1.473 1.522h-18.054c-.812 0-1.473-.682-1.473-1.522V478.67v-.016l.001-.017a.51.51 0 0 1 .008-.06v-.002a.49.49 0 0 1 .017-.063c0-.004.002-.007.004-.011a.537.537 0 0 1 .058-.114l.009-.011a.448.448 0 0 1 .04-.05l5.016-5.183a.45.45 0 0 1 .047-.043l.011-.008a.473.473 0 0 1 .053-.035l.003-.001a.458.458 0 0 1 .055-.025l.01-.004a.435.435 0 0 1 .061-.017h.001a.449.449 0 0 1 .06-.008h.015l.016-.001h14.042c.812 0 1.473.683 1.473 1.522zm-19.395 3.661h2.877a.543.543 0 0 0 .533-.55v-2.975zm18.455-3.66a.543.543 0 0 0-.533-.552h-13.572v3.661c0 .84-.66 1.523-1.473 1.523h-3.542v22.322c0 .304.24.55.533.55h18.054a.542.542 0 0 0 .533-.55zm-16.048 6.22c0-.269.21-.486.47-.486h12.036c.26 0 .47.217.47.485 0 .269-.21.486-.47.486h-12.036a.478.478 0 0 1-.47-.486zm0 2.591c0-.268.21-.486.47-.486h12.036c.26 0 .47.218.47.486 0 .269-.21.486-.47.486h-12.036a.478.478 0 0 1-.47-.486zm0 2.592c0-.268.21-.486.47-.486h12.036c.26 0 .47.218.47.486 0 .269-.21.486-.47.486h-12.036a.478.478 0 0 1-.47-.486zm0 2.592c0-.269.21-.486.47-.486h12.036c.26 0 .47.217.47.486 0 .268-.21.486-.47.486h-12.036a.478.478 0 0 1-.47-.486zm0 2.592c0-.27.21-.486.47-.486h12.036c.26 0 .47.217.47.486 0 .268-.21.486-.47.486h-12.036a.478.478 0 0 1-.47-.486zm6.958 3.628c0 .269-.21.486-.47.486h-6.018a.478.478 0 0 1-.47-.486c0-.268.21-.486.47-.486h6.018c.26 0 .47.218.47.486zm0 2.592c0 .268-.21.486-.47.486h-6.018a.478.478 0 0 1-.47-.486c0-.269.21-.486.47-.486h6.018c.26 0 .47.217.47.486zm4.514-1.296c0 .411-.324.745-.721.745a.734.734 0 0 1-.721-.745c0-.41.323-.745.72-.745.398 0 .722.334.722.745zm2.005 0c0 1.554-1.223 2.819-2.726 2.819-1.504 0-2.727-1.265-2.727-2.819s1.223-2.819 2.727-2.819c1.503 0 2.726 1.265 2.726 2.82zm-.94 0c0-1.018-.801-1.847-1.786-1.847-.986 0-1.787.829-1.787 1.847s.801 1.847 1.787 1.847c.985 0 1.786-.829 1.786-1.847z"/></defs><g><g transform="translate(-785 -473)"><use fill="#fff" xlink:href="#e463a"/></g></g></svg>