<svg width="10" height="17" viewBox="0 0 10 17" fill="none" xmlns="http://www.w3.org/2000/svg"><path opacity=".2" d="M3.142 4.255c0 .469.196.918.545 1.25.35.332.823.518 1.316.518.494 0 .968-.186 1.317-.518s.545-.781.545-1.25c0-.47-.196-.919-.545-1.25a1.913 1.913 0 0 0-1.317-.518c-.493 0-.967.186-1.316.518-.35.331-.545.78-.545 1.25zm-2.638 0c0-.56.116-1.115.342-1.633a4.26 4.26 0 0 1 .977-1.382 4.505 4.505 0 0 1 1.46-.922A4.688 4.688 0 0 1 5.003 0a4.58 4.58 0 0 1 2.974 1.339 4.14 4.14 0 0 1 1.208 2.906 4.14 4.14 0 0 1-1.208 2.907A4.58 4.58 0 0 1 5.003 8.49c-2.488 0-4.5-1.891-4.5-4.236zm6.301 7.847l2.51 2.591a1.37 1.37 0 0 1 0 1.91c-.508.53-1.335.53-1.852 0l-2.45-2.534-2.449 2.534a1.246 1.246 0 0 1-.926.397c-.338 0-.676-.142-.925-.397a1.388 1.388 0 0 1-.386-.955c0-.353.137-.693.386-.955l2.489-2.581a8.162 8.162 0 0 1-2.589-1.116 1.414 1.414 0 0 1-.582-.857 1.357 1.357 0 0 1 .174-1.005C.593 8.5 1.39 8.31 1.997 8.707a5.452 5.452 0 0 0 3.001.894A5.451 5.451 0 0 0 8 8.707a1.28 1.28 0 0 1 1.802.425c.378.643.2 1.466-.408 1.863a8.207 8.207 0 0 1-2.589 1.116v-.01z" fill="#fff"/></svg>