<svg width="18" height="10" viewBox="0 0 18 10" fill="none" xmlns="http://www.w3.org/2000/svg"><path opacity=".2" d="M10.041 9.968c.45 0 .676-.29.676-.677 0-1.45.338-1.934 1.362-.967 1.239 1.16 1.464 1.547 2.827 1.547h2.15c2.039 0 .338-1.547-1.013-2.804-1.351-1.247-1.464-1.247-.338-2.591C17.282 2.639 18.982.318 17.282.318h-2.59c-.563 0-.687.29-.912.774-.789 1.837-2.264 4.447-2.827 4.06-.563-.386-.338-1.643-.338-3.867 0-.58 0-.967-.9-1.16-2.5-.484-4.426.58-3.401.773 1.238.29 1.238 2.708.9 3.868-.563 1.924-2.713-2.03-3.39-3.771-.224-.387-.337-.774-.9-.774H.649c-.563 0-.788.29-.563.677.226.387 2.151 4.641 4.527 7.049 2.264 2.417 3.964 2.03 5.428 2.03v-.01z" fill="#fff"/></svg>