<svg xmlns="http://www.w3.org/2000/svg" xmlns:xlink="http://www.w3.org/1999/xlink" width="98" height="98" viewBox="0 0 98 98"><defs><path id="1fada" d="M1108 3728c27.062 0 49 21.938 49 49s-21.938 49-49 49-49-21.938-49-49 21.938-49 49-49z"/><path id="1fadc" d="M1140 3779.112v10.56c0 .548-.442.991-.987.991h-3.224l.002.066c0 3.458-2.803 6.27-6.247 6.27-3.445 0-6.248-2.812-6.248-6.27l.002-.066h-22.23v.066c0 3.458-2.802 6.27-6.247 6.27-3.444 0-6.247-2.812-6.247-6.27l.002-.066h-5.329a2.045 2.045 0 0 1-2.038-2.046v-2.178h-3.223a.988.988 0 0 1-.986-.99c0-.547.442-.99.986-.99h9.47c.545 0 .987.443.987.99 0 .546-.442.99-.987.99h-4.274v2.178c0 .036.029.066.065.066h5.67c.848-2.456 3.173-4.225 5.904-4.225 2.732 0 5.057 1.77 5.905 4.225h20.466v-7.459c0-.546.441-.99.986-.99.545 0 .987.444.987.99v7.46h.475c.847-2.456 3.173-4.225 5.904-4.225 2.73 0 5.056 1.769 5.904 4.224h2.579v-4.356h-1.118a3.1 3.1 0 0 1-3.091-3.102v-2.113c0-.547.442-.99.987-.99h3.067a3.229 3.229 0 0 0-3.065-2.244h-11.642V3777c0 .547-.442.99-.987.99a.988.988 0 0 1-.986-.99v-17.954a.066.066 0 0 0-.066-.066h-37.879a.066.066 0 0 0-.065.066V3777c0 .547-.442.99-.987.99a.988.988 0 0 1-.986-.99v-17.954c0-1.128.914-2.046 2.038-2.046h37.88c1.123 0 2.038.918 2.038 2.046v2.178h7.431c2.284 0 4.143 1.866 4.143 4.159v1.056a.99.99 0 0 1-.78.968l1.63 6.55a5.217 5.217 0 0 1 4.41 5.155zm-16.835-13.663h9.601v-.066a2.177 2.177 0 0 0-2.17-2.179h-7.431zm0 8.449h10.376l-1.61-6.47h-8.766zm-24.07 16.831c0-2.366-1.917-4.29-4.274-4.29s-4.274 1.924-4.274 4.29 1.917 4.29 4.274 4.29 4.275-1.924 4.275-4.29zm34.723 0c0-2.366-1.917-4.29-4.274-4.29s-4.275 1.924-4.275 4.29 1.918 4.29 4.275 4.29 4.274-1.924 4.274-4.29zm4.209-8.383v-2.244h-2.236v1.122c0 .619.502 1.122 1.118 1.122zm-41.167 8.383a2.045 2.045 0 0 1-2.039 2.047 2.045 2.045 0 0 1-2.038-2.047c0-1.128.914-2.046 2.038-2.046 1.125 0 2.04.918 2.04 2.046zm34.722 0a2.045 2.045 0 0 1-2.038 2.047 2.045 2.045 0 0 1-2.039-2.047c0-1.128.915-2.046 2.039-2.046s2.038.918 2.038 2.046zm-12.626-5.28c0 .547-.442.99-.986.99h-14.731a.988.988 0 0 1-.987-.99c0-.547.442-.99.987-.99h14.73c.546 0 .987.443.987.99zm-25.252-4.224c0 .546-.442.99-.987.99h-12.626a.988.988 0 0 1-.987-.99c0-.547.442-.99.987-.99h12.626c.545 0 .987.443.987.99zm17.598-13.03l-9.47 9.505a.981.981 0 0 1-1.395 0l-5.26-5.28a.993.993 0 0 1 0-1.401.984.984 0 0 1 1.394 0l4.564 4.58 8.772-8.804a.984.984 0 0 1 1.395 0 .993.993 0 0 1 0 1.4z"/><clipPath id="1fadb"><use fill="#fff" xlink:href="#1fada"/></clipPath></defs><g><g transform="translate(-1059 -3728)"><use fill="#fff" fill-opacity="0" stroke="#fff" stroke-miterlimit="50" stroke-width="4" clip-path="url(&quot;#1fadb&quot;)" xlink:href="#1fada"/></g><g transform="translate(-1059 -3728)"><use fill="#fff" xlink:href="#1fadc"/></g></g></svg>