<svg xmlns="http://www.w3.org/2000/svg" xmlns:xlink="http://www.w3.org/1999/xlink" width="98" height="98" viewBox="0 0 98 98"><defs><path id="thh5a" d="M522 3728c27.062 0 49 21.938 49 49s-21.938 49-49 49-49-21.938-49-49 21.938-49 49-49z"/><path id="thh5c" d="M548 3788.217c0 7.028-4.934 12.915-11.516 14.407v.376H497v-25.895l4.113-3.291V3752h31.258v21.814l4.113 3.29v3.346l4.935-4.936 2.25 2.25a14.683 14.683 0 0 1 4.331 10.453zm-11.176-5.782l1.305 1.305 4.584-4.585c-.07-.074-.133-.154-.206-.227l-1.088-1.088zm-.34 9.53l3.19-3.19a.823.823 0 0 0 0-1.163l-3.19-3.191zm-1.986-9.53l.34-.34v-3.007l-12.003 8.473 3.759 2.779.841-.842 5.177 5.176a.822.822 0 0 0 1.163 0l1.064-1.063v-10.835zm-7.063 9.39l-4.594 4.594 1.087 1.088c.073.073.153.135.228.206l4.584-4.584zm4.936-13.01l1.921-1.357-1.921-1.537zm-29.625 1.153l9.297 6.563 4.699-3.473 4.698 3.473 9.298-6.563h-.012v-26.323h-27.968v26.323zm-3.555-2.51l1.922 1.357v-2.894zm-.546 18.976l12.004-8.872-12.004-8.474zm27.798 4.92a14.812 14.812 0 0 1-3.678-2.684l-2.25-2.25 4.903-4.904-8.676-6.413-18.097 13.376v2.876zm19.912-13.137c0-2.848-.914-5.55-2.58-7.796l-4.483 4.482 1.546 1.546a2.47 2.47 0 0 1 0 3.489l-5.9 5.9a2.47 2.47 0 0 1-3.49 0l-1.545-1.546-4.482 4.482a13.023 13.023 0 0 0 7.796 2.58 13.087 13.087 0 0 0 2.285-.212l.027-.004.432-.076c5.931-1.266 10.394-6.542 10.394-12.845zm-17.274-18.12h-24.678v-14.807h24.678zm-1.646-13.162h-21.387v11.516h21.387zm-23.032 14.807h24.678v1.645h-24.678zm0 3.29h24.678v1.645h-24.678zm23.032 3.29h1.646v1.646h-1.646zm-3.29 0h1.645v1.646h-1.645zm-19.742 0H522.5v1.646h-18.097z"/><clipPath id="thh5b"><use fill="#fff" xlink:href="#thh5a"/></clipPath></defs><g><g transform="translate(-473 -3728)"><use fill="#fff" fill-opacity="0" stroke="#fff" stroke-miterlimit="50" stroke-width="4" clip-path="url(&quot;#thh5b&quot;)" xlink:href="#thh5a"/></g><g transform="translate(-473 -3728)"><use fill="#fff" xlink:href="#thh5c"/></g></g></svg>