<svg xmlns="http://www.w3.org/2000/svg" xmlns:xlink="http://www.w3.org/1999/xlink" width="98" height="98" viewBox="0 0 98 98"><defs><path id="ay94a" d="M1400 3728c27.062 0 49 21.938 49 49s-21.938 49-49 49-49-21.938-49-49 21.938-49 49-49z"/><path id="ay94c" d="M1428.821 3777.992a.951.951 0 0 1-.77.392h-2.85v21.673c0 .52-.424.943-.95.943h-47.489a.946.946 0 0 1-.95-.943V3776.5h-2.85a.941.941 0 0 1-.881-1.293l3.8-9.423a.95.95 0 0 1 .88-.592h1.901v-6.596c0-.52.425-.943.95-.943h9.497v-4.711c0-.52.425-.942.95-.942h18.996c.525 0 .95.422.95.942v4.711h11.398c.524 0 .95.423.95.943v6.596h1.898c.41 0 .772.259.902.645l3.799 11.307a.935.935 0 0 1-.13.848zm-8.368-12.8v-5.654h-17.096v5.654zm-29.444-11.308v3.77h3.8c.524 0 .95.422.95.942v6.596h5.698v-6.596c0-.52.425-.943.95-.943h5.698v-3.769zm-10.447 11.308h13.297v-5.654h-13.297zm-6.197 9.423h32.147l3.04-7.539h-32.147zm3.347 24.5h32.293v-28.087l-.982 2.434-.985 2.446a.95.95 0 0 1-.642.559.946.946 0 0 1-.24.033h-29.444zm45.59 0v-20.73h-6.649a.945.945 0 0 1-.9-.645l-1.078-3.206-2.506-7.458h-.265v32.04zm3.431-22.615l-3.166-9.424h-9.395l2.387 7.105.779 2.319zm-22.427 6.596v11.307c0 .52-.425.943-.95.943h-18.995a.946.946 0 0 1-.95-.943v-11.307c0-.52.425-.943.95-.943h18.996c.524 0 .95.423.95.943zm-1.9.942h-17.095v9.423h17.096zm-14.246 2.827c0-.52.424-.942.95-.942h1.899c.525 0 .95.422.95.942s-.425.942-.95.942h-1.9a.946.946 0 0 1-.95-.942zm11.397 3.77c0 .52-.425.941-.95.941h-1.9a.946.946 0 0 1-.95-.942c0-.52.425-.942.95-.942h1.9c.525 0 .95.422.95.942zm-5.699-3.77c0-.52.425-.942.95-.942h3.8c.524 0 .949.422.949.942s-.425.942-.95.942h-3.799a.946.946 0 0 1-.95-.942zm-5.698 3.77c0-.52.424-.943.95-.943h4.748c.526 0 .95.422.95.942s-.424.943-.95.943h-4.749a.946.946 0 0 1-.95-.943z"/><clipPath id="ay94b"><use fill="#fff" xlink:href="#ay94a"/></clipPath></defs><g><g transform="translate(-1351 -3728)"><use fill="#fff" fill-opacity="0" stroke="#fff" stroke-miterlimit="50" stroke-width="4" clip-path="url(&quot;#ay94b&quot;)" xlink:href="#ay94a"/></g><g transform="translate(-1351 -3728)"><use fill="#fff" xlink:href="#ay94c"/></g></g></svg>