<?xml version="1.0" encoding="iso-8859-1"?>
<!-- Generator: Adobe Illustrator 18.0.0, SVG Export Plug-In . SVG Version: 6.00 Build 0)  -->
<!DOCTYPE svg PUBLIC "-//W3C//DTD SVG 1.1//EN" "http://www.w3.org/Graphics/SVG/1.1/DTD/svg11.dtd">
<svg version="1.1" id="Capa_1" xmlns="http://www.w3.org/2000/svg" xmlns:xlink="http://www.w3.org/1999/xlink" x="0px" y="0px"
	 viewBox="0 0 370.32 370.32" style="enable-background:new 0 0 370.32 370.32;" xml:space="preserve">
<g>
	<path style="fill:#020202;" d="M148.879,85.993H95.135c-8.284,0-15,6.716-15,15c0,8.284,6.716,15,15,15h53.744
		c8.284,0,15-6.716,15-15C163.879,92.709,157.163,85.993,148.879,85.993z"/>
	<path style="fill:#020202;" d="M148.879,148.327H95.135c-8.284,0-15,6.716-15,15c0,8.284,6.716,15,15,15h53.744
		c8.284,0,15-6.716,15-15C163.879,155.043,157.163,148.327,148.879,148.327z"/>
	<path style="fill:#020202;" d="M325.879,225.752h-24.41V73.703c0-3.934-1.561-7.705-4.344-10.484l-58.877-58.88
		C235.465,1.561,231.699,0,227.766,0H50.58C34.527,0,21.469,13.059,21.469,29.112v312.095c0,16.054,13.059,29.113,29.111,29.113
		h221.777c16.053,0,29.111-13.06,29.111-29.113v-30.048h24.41c12.688,0,22.973-10.285,22.973-22.973v-39.462
		C348.852,236.038,338.566,225.752,325.879,225.752z M269.855,337.906H53.082V32.414H207.17V75.99
		c0,10.555,8.555,19.107,19.105,19.107h43.58v130.655h-74.178c-12.688,0-22.973,10.286-22.973,22.973v39.462
		c0,12.688,10.285,22.973,22.973,22.973h74.178V337.906z M220.686,283.435c4.044,0,7.896-1.435,10.855-4.05
		c1.814-1.6,4.544-1.565,6.318,0.076l0.861,0.801c0.977,0.91,1.522,2.187,1.503,3.52c-0.019,1.329-0.603,2.597-1.605,3.475
		c-4.986,4.36-11.356,6.765-17.933,6.765c-14.778,0-26.803-11.779-26.803-26.25c0-14.439,12.025-26.189,26.803-26.189
		c6.583,0,12.931,2.386,17.87,6.704c0.982,0.86,1.562,2.084,1.605,3.387c0.045,1.302-0.452,2.564-1.376,3.483l-0.8,0.801
		c-1.755,1.759-4.578,1.848-6.443,0.197c-2.913-2.573-6.768-3.986-10.855-3.986c-8.943,0-16.219,6.995-16.219,15.603
		C204.467,276.409,211.742,283.435,220.686,283.435z M262.757,294.021c-6.633,0-13.554-2.855-18.065-7.439
		c-1.809-1.842-1.801-4.799,0.026-6.626l0.862-0.863c0.898-0.901,2.121-1.401,3.392-1.38c1.273,0.021,2.48,0.549,3.355,1.469
		c2.371,2.512,6.565,4.194,10.431,4.194c3.99,0,8.652-1.186,8.652-4.525c0.025-3.311-2.053-4.436-9.217-6.605
		c-6.576-1.99-16.513-5.001-16.513-16.417c0-8.523,7.408-14.247,18.432-14.247c4.917,0,10.283,1.497,14.001,3.896
		c2.16,1.396,2.802,4.266,1.439,6.444l-0.617,0.983c-0.667,1.069-1.735,1.826-2.963,2.101c-1.229,0.271-2.517,0.043-3.576-0.639
		c-1.988-1.282-5.317-2.142-8.283-2.142c-3.752,0-7.791,1.126-7.791,3.603c0,2.89,1.608,4.001,9.046,6.249
		c6.682,2.02,16.775,5.07,16.686,16.809C282.052,287.923,274.297,294.021,262.757,294.021z M304.59,294.021
		c-6.636,0-13.558-2.855-18.065-7.439c-1.814-1.841-1.802-4.798,0.026-6.626l0.862-0.863c0.881-0.885,2.08-1.38,3.327-1.38
		c0.022,0,0.038,0,0.063,0c1.27,0.021,2.479,0.549,3.351,1.469c2.375,2.512,6.564,4.194,10.436,4.194
		c3.986,0,8.646-1.186,8.646-4.525c0.032-3.311-2.046-4.436-9.215-6.605c-6.571-1.99-16.508-5.001-16.508-16.417
		c0-8.523,7.403-14.247,18.43-14.247c4.919,0,10.285,1.497,13.996,3.896c2.165,1.396,2.806,4.266,1.445,6.443l-0.62,0.982
		c-0.662,1.068-1.73,1.828-2.96,2.103c-1.229,0.271-2.522,0.043-3.578-0.639c-1.991-1.282-5.319-2.142-8.283-2.142
		c-3.752,0-7.788,1.126-7.788,3.603c0,2.89,1.605,4.001,9.045,6.249c6.68,2.02,16.772,5.07,16.684,16.809
		C323.883,287.923,316.129,294.021,304.59,294.021z"/>
</g>
<g>
</g>
<g>
</g>
<g>
</g>
<g>
</g>
<g>
</g>
<g>
</g>
<g>
</g>
<g>
</g>
<g>
</g>
<g>
</g>
<g>
</g>
<g>
</g>
<g>
</g>
<g>
</g>
<g>
</g>
</svg>
