<?xml version="1.0" encoding="iso-8859-1"?>
<!-- Generator: Adobe Illustrator 19.0.0, SVG Export Plug-In . SVG Version: 6.00 Build 0)  -->
<svg version="1.1" id="Capa_1" xmlns="http://www.w3.org/2000/svg" xmlns:xlink="http://www.w3.org/1999/xlink" x="0px" y="0px"
	 viewBox="0 0 384 384" style="enable-background:new 0 0 384 384;" xml:space="preserve">
<g>
	<g>
		<path d="M64,0v80H0v144h64v160h224l96-96V0H64z M16,208V96h240v112H16z M288,361.376V288h73.376L288,361.376z M368,272h-96v96H80
			V224h192V80H80V16h288V272z"/>
	</g>
</g>
<g>
	<g>
		<path d="M70.896,149.44v10.176H80v7.008c0,1.856-0.272,3.488-0.848,4.864c-0.576,1.376-1.296,2.496-2.16,3.408
			c-0.88,0.896-1.792,1.568-2.784,2.016c-1.008,0.432-1.904,0.672-2.752,0.672c-1.984,0-3.6-0.624-4.848-1.872
			c-1.248-1.248-2.208-3.04-2.88-5.376s-1.136-5.168-1.392-8.496s-0.384-7.024-0.384-11.136c0-8.56,0.736-14.72,2.208-18.416
			c1.488-3.728,3.872-5.584,7.2-5.584c1.408,0,2.624,0.368,3.616,1.104c0.976,0.736,1.792,1.68,2.432,2.784
			c0.64,1.12,1.104,2.352,1.392,3.696c0.288,1.344,0.432,2.656,0.432,3.92h13.232c0-6.992-1.664-12.352-4.992-16.08
			c-3.328-3.76-8.768-5.632-16.32-5.632c-4.416,0-8.08,0.736-11.04,2.208c-2.928,1.488-5.312,3.664-7.088,6.576
			c-1.792,2.928-3.056,6.56-3.792,10.912c-0.736,4.336-1.104,9.408-1.104,15.152c0,5.952,0.272,11.184,0.784,15.696
			c0.496,4.512,1.504,8.288,3.008,11.376c1.504,3.088,3.568,5.344,6.24,6.816s6.112,2.224,10.336,2.224c3.264,0,6.064-0.56,8.4-1.68
			s4.336-3.008,6-5.712h0.176v6.336h10.176v-36.96H70.896z"/>
	</g>
</g>
<g>
	<g>
		<rect x="112.448" y="117.856" width="13.824" height="68.544"/>
	</g>
</g>
<g>
	<g>
		<polygon points="142.496,117.856 142.496,129.184 157.472,129.184 157.472,186.4 171.296,186.4 171.296,129.184 186.272,129.184 
			186.272,117.856 		"/>
	</g>
</g>
<g>
</g>
<g>
</g>
<g>
</g>
<g>
</g>
<g>
</g>
<g>
</g>
<g>
</g>
<g>
</g>
<g>
</g>
<g>
</g>
<g>
</g>
<g>
</g>
<g>
</g>
<g>
</g>
<g>
</g>
</svg>
