<?xml version="1.0" encoding="iso-8859-1"?>
<!-- Generator: Adobe Illustrator 19.0.0, SVG Export Plug-In . SVG Version: 6.00 Build 0)  -->
<svg version="1.1" id="Capa_1" xmlns="http://www.w3.org/2000/svg" xmlns:xlink="http://www.w3.org/1999/xlink" x="0px" y="0px"
	 viewBox="0 0 384 384" style="enable-background:new 0 0 384 384;" xml:space="preserve">
<g>
	<g>
		<path d="M64,0v80H0v144h64v160h224l96-96V0H64z M16,208V96h240v112H16z M288,361.376V288h73.376L288,361.376z M368,272h-96v96H80
			V224h192V80H80V16h288V272z"/>
	</g>
</g>
<g>
	<g>
		<polygon points="59.088,117.856 59.088,144.064 42.96,144.064 42.96,117.856 29.136,117.856 29.136,186.4 42.96,186.4 
			42.96,155.968 59.088,155.968 59.088,186.4 72.912,186.4 72.912,117.856 		"/>
	</g>
</g>
<g>
	<g>
		<polygon points="81.856,117.856 81.856,129.184 96.816,129.184 96.816,186.4 110.656,186.4 110.656,129.184 125.632,129.184 
			125.632,117.856 		"/>
	</g>
</g>
<g>
	<g>
		<polygon points="176.144,117.856 166.256,166.24 166.064,166.24 156.272,117.856 135.712,117.856 135.712,186.4 148.384,186.4 
			148.384,131.68 148.576,131.68 160.768,186.4 171.52,186.4 183.712,131.68 183.92,131.68 183.92,186.4 196.592,186.4 
			196.592,117.856 		"/>
	</g>
</g>
<g>
	<g>
		<polygon points="220.504,175.072 220.504,117.856 206.664,117.856 206.664,186.4 244.984,186.4 244.984,175.072 		"/>
	</g>
</g>
<g>
</g>
<g>
</g>
<g>
</g>
<g>
</g>
<g>
</g>
<g>
</g>
<g>
</g>
<g>
</g>
<g>
</g>
<g>
</g>
<g>
</g>
<g>
</g>
<g>
</g>
<g>
</g>
<g>
</g>
</svg>
