<?xml version="1.0" encoding="iso-8859-1"?>
<!-- Generator: Adobe Illustrator 18.0.0, SVG Export Plug-In . SVG Version: 6.00 Build 0)  -->
<!DOCTYPE svg PUBLIC "-//W3C//DTD SVG 1.1//EN" "http://www.w3.org/Graphics/SVG/1.1/DTD/svg11.dtd">
<svg version="1.1" id="Capa_1" xmlns="http://www.w3.org/2000/svg" xmlns:xlink="http://www.w3.org/1999/xlink" x="0px" y="0px"
	 viewBox="0 0 370.32 370.32" style="enable-background:new 0 0 370.32 370.32;" xml:space="preserve">
<g>
	<path style="fill:#020202;" d="M148.879,85.993H95.135c-8.283,0-15,6.716-15,15c0,8.284,6.717,15,15,15h53.744
		c8.284,0,15-6.716,15-15C163.879,92.709,157.163,85.993,148.879,85.993z"/>
	<path style="fill:#020202;" d="M148.879,148.327H95.135c-8.283,0-15,6.716-15,15c0,8.284,6.717,15,15,15h53.744
		c8.284,0,15-6.716,15-15C163.879,155.043,157.163,148.327,148.879,148.327z"/>
	<path style="fill:#020202;" d="M325.879,225.752h-24.41V73.703c0-3.934-1.56-7.705-4.344-10.484l-58.877-58.88
		C235.465,1.561,231.699,0,227.766,0H50.58C34.527,0,21.469,13.059,21.469,29.112v312.095c0,16.054,13.059,29.113,29.111,29.113
		h221.777c16.053,0,29.111-13.06,29.111-29.113v-30.048h24.41c12.688,0,22.973-10.285,22.973-22.973v-39.462
		C348.852,236.038,338.566,225.752,325.879,225.752z M269.855,337.906H53.082V32.414H207.17V75.99
		c0,10.555,8.555,19.107,19.105,19.107h43.58v130.655h-74.178c-12.688,0-22.973,10.286-22.973,22.973v39.462
		c0,12.688,10.285,22.973,22.973,22.973h74.178V337.906z M232.399,256.574c-2.051,0-3.71-1.66-3.71-3.709v-0.969
		c0-2.051,1.659-3.709,3.71-3.709h24.257c2.048,0,3.706,1.658,3.706,3.709v0.969c0,2.049-1.658,3.709-3.706,3.709h-7.938v29.233
		c0,2.051-1.658,3.709-3.708,3.709h-0.97c-2.048,0-3.71-1.658-3.71-3.709v-29.233H232.399z M197.215,272.876v12.932
		c0,2.051-1.658,3.709-3.708,3.709h-0.97c-2.048,0-3.71-1.658-3.71-3.709v-33.911c0-2.051,1.662-3.709,3.71-3.709h0.97
		c2.05,0,3.708,1.658,3.708,3.709v12.593h16.987v-12.593c0-2.051,1.658-3.709,3.709-3.709h0.967c2.051,0,3.71,1.658,3.71,3.709
		v33.911c0,2.051-1.659,3.709-3.71,3.709h-0.967c-2.051,0-3.709-1.658-3.709-3.709v-12.932H197.215z M306.052,285.808
		c0,2.051-1.662,3.709-3.71,3.709h-0.974c-2.044,0-3.706-1.658-3.709-3.705l-0.025-17.579l-7.901,15.524
		c-0.633,1.243-1.909,2.023-3.308,2.023h-0.095c-1.392,0-2.669-0.778-3.304-2.022l-7.929-15.525v17.575
		c0,2.051-1.663,3.709-3.71,3.709h-0.973c-2.046,0-3.709-1.658-3.709-3.709v-33.911c0-2.051,1.663-3.709,3.709-3.709h1.698
		c1.397,0,2.674,0.78,3.307,2.024l10.996,21.581l10.916-21.57c0.633-1.25,1.91-2.035,3.31-2.035h1.699
		c2.048,0,3.71,1.658,3.71,3.709V285.808z M338.827,285.808c0,2.051-1.662,3.709-3.71,3.709h-16.155
		c-2.047,0-3.709-1.658-3.709-3.709v-33.911c0-2.051,1.662-3.709,3.709-3.709h0.973c2.047,0,3.709,1.658,3.709,3.709v29.233h11.474
		c2.048,0,3.71,1.66,3.71,3.709V285.808z"/>
</g>
<g>
</g>
<g>
</g>
<g>
</g>
<g>
</g>
<g>
</g>
<g>
</g>
<g>
</g>
<g>
</g>
<g>
</g>
<g>
</g>
<g>
</g>
<g>
</g>
<g>
</g>
<g>
</g>
<g>
</g>
</svg>
