<?xml version="1.0" encoding="iso-8859-1"?>
<!-- Generator: Adobe Illustrator 19.0.0, SVG Export Plug-In . SVG Version: 6.00 Build 0)  -->
<svg version="1.1" id="Capa_1" xmlns="http://www.w3.org/2000/svg" xmlns:xlink="http://www.w3.org/1999/xlink" x="0px" y="0px"
	 viewBox="0 0 384 384" style="enable-background:new 0 0 384 384;" xml:space="preserve">
<g>
	<g>
		<path d="M64,0v80H0v144h64v160h224l96-96V0H64z M16,208V96h240v112H16z M288,361.376V288h73.376L288,361.376z M368,272h-96v96H80
			V224h192V80H80V16h288V272z"/>
	</g>
</g>
<g>
	<g>
		<path d="M90.848,130.864c-0.64-2.464-1.696-4.656-3.168-6.576c-1.472-1.92-3.392-3.472-5.808-4.656
			c-2.416-1.184-5.36-1.776-8.88-1.776H48.8V186.4h13.824v-27.36h7.392c3.264,0,6.24-0.448,8.928-1.264s4.976-2.08,6.864-3.744
			c1.888-1.648,3.36-3.792,4.416-6.416c1.056-2.624,1.584-5.696,1.584-9.216C91.808,135.84,91.472,133.312,90.848,130.864z
			 M75.44,146.384c-1.68,1.664-3.92,2.512-6.672,2.512h-6.144v-20.848h5.76c3.456,0,5.92,0.912,7.392,2.688
			c1.472,1.792,2.208,4.416,2.208,7.872C77.984,142.128,77.136,144.72,75.44,146.384z"/>
	</g>
</g>
<g>
	<g>
		<polygon points="138.176,117.856 138.176,144.064 122.048,144.064 122.048,117.856 108.224,117.856 108.224,186.4 122.048,186.4 
			122.048,155.968 138.176,155.968 138.176,186.4 152,186.4 152,117.856 		"/>
	</g>
</g>
<g>
	<g>
		<path d="M213.248,130.864c-0.64-2.464-1.712-4.656-3.168-6.576c-1.456-1.92-3.408-3.472-5.792-4.656
			c-2.416-1.184-5.376-1.792-8.896-1.792H171.2v68.544h13.824v-27.36h7.392c3.264,0,6.24-0.432,8.928-1.248s4.992-2.08,6.864-3.744
			c1.888-1.648,3.376-3.792,4.416-6.416c1.072-2.624,1.584-5.696,1.584-9.216C214.208,135.84,213.888,133.312,213.248,130.864z
			 M197.84,146.384c-1.696,1.664-3.92,2.512-6.672,2.512h-6.144v-20.848h5.744c3.472,0,5.92,0.912,7.392,2.688
			c1.488,1.792,2.224,4.416,2.224,7.872C200.384,142.128,199.52,144.72,197.84,146.384z"/>
	</g>
</g>
<g>
</g>
<g>
</g>
<g>
</g>
<g>
</g>
<g>
</g>
<g>
</g>
<g>
</g>
<g>
</g>
<g>
</g>
<g>
</g>
<g>
</g>
<g>
</g>
<g>
</g>
<g>
</g>
<g>
</g>
</svg>
