<?xml version="1.0" encoding="iso-8859-1"?>
<!-- Generator: Adobe Illustrator 19.0.0, SVG Export Plug-In . SVG Version: 6.00 Build 0)  -->
<svg version="1.1" id="Capa_1" xmlns="http://www.w3.org/2000/svg" xmlns:xlink="http://www.w3.org/1999/xlink" x="0px" y="0px"
	 viewBox="0 0 384 384" style="enable-background:new 0 0 384 384;" xml:space="preserve">
<g>
	<g>
		<path d="M64,0v80H0v144h64v160h224l96-96V0H64z M16,208V96h240v112H16z M288,361.376V288h73.376L288,361.376z M368,272h-96v96H80
			V224h192V80H80V16h288V272z"/>
	</g>
</g>
<g>
	<g>
		<path d="M90.848,130.864c-0.64-2.464-1.696-4.656-3.168-6.576c-1.472-1.92-3.392-3.472-5.808-4.656
			c-2.416-1.184-5.36-1.776-8.88-1.776H48.8V186.4h13.824v-27.36h7.392c3.264,0,6.24-0.448,8.928-1.264s4.976-2.08,6.864-3.744
			c1.888-1.648,3.36-3.792,4.416-6.416c1.056-2.624,1.584-5.696,1.584-9.216C91.808,135.84,91.472,133.312,90.848,130.864z
			 M75.44,146.384c-1.68,1.664-3.92,2.512-6.672,2.512h-6.144v-20.848h5.76c3.456,0,5.92,0.912,7.392,2.688
			c1.472,1.792,2.208,4.416,2.208,7.872C77.984,142.128,77.136,144.72,75.44,146.384z"/>
	</g>
</g>
<g>
	<g>
		<path d="M150.544,160.976c-0.4-1.744-1.072-3.312-2.064-4.752c-0.992-1.44-2.32-2.784-3.984-4.032
			c-1.664-1.264-3.808-2.464-6.432-3.616l-10.656-4.608c-2.928-1.2-4.848-2.528-5.744-3.984c-0.912-1.44-1.344-3.2-1.344-5.328
			c0-1.024,0.112-2.016,0.336-2.976c0.224-0.96,0.656-1.84,1.264-2.576c0.608-0.736,1.424-1.328,2.448-1.776
			c1.008-0.432,2.288-0.672,3.824-0.672c2.688,0,4.608,0.896,5.76,2.64c1.152,1.776,1.728,4.288,1.728,7.552h13.264v-1.92
			c0-3.264-0.544-6.064-1.6-8.4c-1.04-2.32-2.528-4.24-4.4-5.744c-1.888-1.52-4.144-2.592-6.736-3.264
			c-2.576-0.672-5.424-1.008-8.48-1.008c-6.592,0-11.792,1.664-15.568,4.992s-5.664,8.368-5.664,15.152
			c0,2.832,0.336,5.296,1.04,7.456c0.704,2.144,1.808,4.032,3.312,5.664c1.52,1.648,3.376,3.072,5.632,4.272
			c2.24,1.216,4.896,2.352,7.968,3.376c2.288,0.768,4.224,1.52,5.792,2.256c1.568,0.736,2.832,1.536,3.792,2.448
			c0.976,0.88,1.664,1.888,2.064,3.008c0.416,1.12,0.624,2.448,0.624,3.984c0,2.864-0.848,5.008-2.544,6.384
			c-1.68,1.376-3.584,2.064-5.696,2.064c-1.792,0-3.28-0.272-4.464-0.768c-1.184-0.512-2.128-1.216-2.832-2.128
			c-0.704-0.896-1.184-2-1.44-3.312c-0.256-1.296-0.384-2.752-0.384-4.352v-2h-13.856v2.784c0,6.336,1.68,11.2,5.04,14.592
			c3.36,3.392,8.944,5.088,16.752,5.088c7.488,0,13.328-1.664,17.52-4.96c4.208-3.296,6.304-8.56,6.304-15.792
			C151.12,164.624,150.928,162.688,150.544,160.976z"/>
	</g>
</g>
<g>
	<g>
		<path d="M212.784,137.44c-0.576-4.112-1.664-7.6-3.312-10.512c-1.632-2.928-3.92-5.152-6.864-6.72
			c-2.96-1.568-6.816-2.368-11.632-2.368H168.32v68.544h21.824c4.608,0,8.416-0.704,11.424-2.112c3.008-1.408,5.408-3.536,7.2-6.432
			c1.792-2.88,3.056-6.56,3.792-10.992c0.736-4.448,1.088-9.68,1.088-15.696C213.648,146.112,213.36,141.536,212.784,137.44z
			 M199.376,163.264c-0.272,3.152-0.848,5.68-1.728,7.6c-0.864,1.92-2.032,3.296-3.504,4.128c-1.472,0.832-3.424,1.248-5.856,1.248
			h-6.16v-48.208h5.856c2.624,0,4.72,0.512,6.288,1.504c1.584,0.976,2.752,2.448,3.568,4.4c0.8,1.952,1.328,4.4,1.584,7.344
			c0.24,2.96,0.384,6.384,0.384,10.288C199.808,156.24,199.664,160.144,199.376,163.264z"/>
	</g>
</g>
<g>
</g>
<g>
</g>
<g>
</g>
<g>
</g>
<g>
</g>
<g>
</g>
<g>
</g>
<g>
</g>
<g>
</g>
<g>
</g>
<g>
</g>
<g>
</g>
<g>
</g>
<g>
</g>
<g>
</g>
</svg>
