<?xml version="1.0" encoding="iso-8859-1"?>
<!-- Generator: Adobe Illustrator 19.0.0, SVG Export Plug-In . SVG Version: 6.00 Build 0)  -->
<svg version="1.1" id="Capa_1" xmlns="http://www.w3.org/2000/svg" xmlns:xlink="http://www.w3.org/1999/xlink" x="0px" y="0px"
	 viewBox="0 0 384 384" style="enable-background:new 0 0 384 384;" xml:space="preserve">
<g>
	<g>
		<path d="M64,0v80H0v144h64v160h224l96-96V0H64z M16,208V96h240v112H16z M288,361.376V288h73.376L288,361.376z M368,272h-96v96H80
			V224h192V80H80V16h288V272z"/>
	</g>
</g>
<g>
	<g>
		<path d="M91.12,160.976c-0.4-1.744-1.072-3.312-2.064-4.752s-2.32-2.784-3.984-4.032c-1.664-1.264-3.808-2.464-6.432-3.616
			l-10.656-4.608c-2.928-1.2-4.848-2.528-5.744-3.984c-0.912-1.44-1.344-3.2-1.344-5.328c0-1.024,0.112-2.016,0.336-2.976
			c0.224-0.96,0.672-1.84,1.28-2.576c0.608-0.736,1.424-1.328,2.448-1.776c1.008-0.432,2.288-0.672,3.824-0.672
			c2.688,0,4.608,0.896,5.76,2.64c1.152,1.776,1.728,4.288,1.728,7.552H89.52v-1.92c0-3.264-0.544-6.064-1.6-8.4
			c-1.04-2.32-2.528-4.24-4.4-5.744c-1.888-1.52-4.144-2.592-6.736-3.264c-2.576-0.672-5.424-1.008-8.48-1.008
			c-6.592,0-11.792,1.664-15.568,4.992s-5.664,8.368-5.664,15.152c0,2.832,0.336,5.296,1.04,7.456
			c0.704,2.144,1.808,4.032,3.312,5.664c1.52,1.648,3.376,3.072,5.632,4.272c2.24,1.216,4.896,2.352,7.968,3.376
			c2.288,0.768,4.224,1.52,5.792,2.256c1.568,0.736,2.832,1.536,3.792,2.448c0.976,0.88,1.664,1.888,2.064,3.008
			c0.416,1.12,0.624,2.448,0.624,3.984c0,2.864-0.848,5.008-2.544,6.384c-1.68,1.376-3.584,2.064-5.696,2.064
			c-1.792,0-3.28-0.272-4.464-0.768c-1.184-0.512-2.128-1.216-2.832-2.128c-0.704-0.896-1.184-2-1.44-3.312
			c-0.256-1.296-0.416-2.752-0.416-4.352h0v-2H46.08v2.784c0,6.336,1.68,11.2,5.04,14.592c3.36,3.392,8.944,5.088,16.752,5.088
			c7.488,0,13.328-1.664,17.52-4.96c4.208-3.296,6.304-8.56,6.304-15.792C91.696,164.624,91.504,162.688,91.12,160.976z"/>
	</g>
</g>
<g>
	<g>
		<polygon points="138.672,117.856 128.496,168.544 128.192,168.544 118.544,117.856 103.76,117.856 119.488,186.4 137.248,186.4 
			152.992,117.856 		"/>
	</g>
</g>
<g>
	<g>
		<path d="M189.76,149.44v10.176h9.104v7.008c0,1.856-0.288,3.488-0.864,4.864c-0.576,1.376-1.296,2.496-2.16,3.408
			c-0.88,0.896-1.792,1.568-2.784,2.016c-1.008,0.432-1.904,0.672-2.752,0.672c-1.984,0-3.6-0.624-4.848-1.872
			c-1.248-1.248-2.208-3.04-2.88-5.376s-1.136-5.168-1.392-8.496s-0.384-7.024-0.384-11.136c0-8.56,0.736-14.72,2.208-18.416
			c1.488-3.728,3.872-5.584,7.2-5.584c1.408,0,2.624,0.368,3.616,1.104c0.976,0.736,1.792,1.68,2.432,2.784
			c0.64,1.12,1.104,2.352,1.392,3.696c0.288,1.344,0.432,2.656,0.432,3.92h13.216c0-6.992-1.664-12.352-4.992-16.08
			c-3.328-3.76-8.768-5.632-16.32-5.632c-4.416,0-8.08,0.736-11.04,2.208c-2.928,1.488-5.312,3.664-7.088,6.576
			c-1.792,2.928-3.056,6.56-3.792,10.912c-0.736,4.336-1.104,9.408-1.104,15.152c0,5.952,0.272,11.184,0.784,15.696
			c0.496,4.512,1.504,8.288,3.008,11.376c1.504,3.088,3.568,5.344,6.24,6.816s6.112,2.224,10.336,2.224c3.264,0,6.064-0.56,8.4-1.68
			s4.336-3.008,6-5.712h0.192v6.336h10.192v-36.96H189.76z"/>
	</g>
</g>
<g>
</g>
<g>
</g>
<g>
</g>
<g>
</g>
<g>
</g>
<g>
</g>
<g>
</g>
<g>
</g>
<g>
</g>
<g>
</g>
<g>
</g>
<g>
</g>
<g>
</g>
<g>
</g>
<g>
</g>
</svg>
