<svg xmlns="http://www.w3.org/2000/svg" xmlns:xlink="http://www.w3.org/1999/xlink" width="60" height="38" viewBox="0 0 60 38"><defs><path id="8yqwa" d="M1137 4326.006v10.033c0 .52-.42.94-.94.94h-3.07l.001.064c0 3.284-2.669 5.956-5.95 5.956-3.28 0-5.95-2.672-5.95-5.956l.002-.063h-21.172l.002.063c0 3.284-2.67 5.956-5.95 5.956-3.28 0-5.95-2.672-5.95-5.956l.002-.063h-5.075a1.945 1.945 0 0 1-1.942-1.944v-2.07h-3.069a.94.94 0 0 1 0-1.88h9.02a.94.94 0 0 1 0 1.88h-4.072v2.07c0 .035.028.062.063.062h5.4c.807-2.332 3.022-4.012 5.623-4.012 2.6 0 4.816 1.68 5.623 4.012h19.491v-7.085a.94.94 0 1 1 1.88 0v7.086h.452c.806-2.333 3.022-4.013 5.623-4.013 2.6 0 4.815 1.68 5.622 4.013h2.457v-4.138h-1.065a2.949 2.949 0 0 1-2.944-2.948v-2.007c0-.52.421-.94.94-.94h2.921a3.074 3.074 0 0 0-2.92-2.132h-.002-11.085V4324a.94.94 0 1 1-1.878 0v-17.056a.062.062 0 0 0-.063-.063h-36.075a.062.062 0 0 0-.063.063V4324a.94.94 0 1 1-1.879 0v-17.056c0-1.072.871-1.944 1.942-1.944h36.075c1.07 0 1.942.872 1.942 1.944v2.069h7.077a3.953 3.953 0 0 1 3.945 3.95v1.004a.94.94 0 0 1-.743.92l1.554 6.222a4.96 4.96 0 0 1 4.2 4.897zm-16.033-12.98h9.144v-.062a2.07 2.07 0 0 0-2.067-2.07h-7.077zm0 8.027h9.882l-1.535-6.146h-8.347zm-22.923 15.99a4.078 4.078 0 0 0-4.071-4.076 4.078 4.078 0 0 0-4.071 4.076 4.078 4.078 0 0 0 4.07 4.076 4.078 4.078 0 0 0 4.072-4.076zm33.069 0a4.078 4.078 0 0 0-4.071-4.076 4.078 4.078 0 0 0-4.071 4.076 4.078 4.078 0 0 0 4.07 4.076 4.078 4.078 0 0 0 4.072-4.076zm4.008-7.964v-2.132h-2.13v1.066c0 .588.478 1.066 1.065 1.066zm-39.207 7.964a1.945 1.945 0 0 1-1.941 1.944 1.945 1.945 0 0 1 0-3.888c1.07 0 1.941.872 1.941 1.944zm33.07 0c0 1.072-.872 1.944-1.942 1.944a1.945 1.945 0 0 1 0-3.888c1.07 0 1.941.872 1.941 1.944zm-12.026-5.017c0 .52-.42.94-.94.94h-14.029a.94.94 0 0 1 0-1.88h14.03a.94.94 0 0 1 .94.94zm-24.05-4.013c0 .52-.42.94-.94.94h-12.024a.94.94 0 0 1 0-1.88h12.025c.518 0 .94.42.94.94zm16.76-12.378l-9.018 9.03a.936.936 0 0 1-1.329 0l-5.01-5.017a.942.942 0 0 1 0-1.33.939.939 0 0 1 1.328 0l4.346 4.351 8.355-8.364a.939.939 0 1 1 1.328 1.33z"/></defs><g><g transform="translate(-1077 -4305)"><use xlink:href="#8yqwa"/></g></g></svg>