<svg xmlns="http://www.w3.org/2000/svg" xmlns:xlink="http://www.w3.org/1999/xlink" width="60" height="57" viewBox="0 0 60 57"><defs><path id="nqxba" d="M1430 4352h-60l4.26-33.333h11.868c.603 0 1.09.48 1.09 1.075s-.487 1.075-1.09 1.075h-9.944l-3.71 29.032h55.097l-3.161-29.032h-9.927c-.603 0-1.09-.48-1.09-1.075s.487-1.075 1.09-1.075h11.887zm-42.241-38.753c-.559-2.608-.684-5.111-.374-7.44.94-7.07 5.395-10.808 12.883-10.808 7.49 0 11.945 3.738 12.883 10.808.31 2.328.185 4.83-.373 7.44-2.753 12.862-9.401 20.582-11.374 22.643-.008.008-.018.014-.027.023.214.514.006 1.11-.504 1.365a11.857 11.857 0 0 0-1.704 1.032 1.103 1.103 0 0 1-1.525-.231 1.067 1.067 0 0 1 .234-1.503c.23-.166.465-.327.705-.48.154-.097.325-.18.485-.273-2.04-2.149-8.584-9.839-11.31-22.576zm2.134-.442c2.473 11.557 8.372 18.896 10.376 21.124 2.001-2.226 7.901-9.562 10.376-21.124.506-2.37.622-4.632.344-6.718-.798-6.012-4.304-8.936-10.72-8.936-6.415 0-9.922 2.924-10.722 8.936-.277 2.088-.161 4.348.346 6.718zm2.364-5.357c0-4.356 3.594-7.9 8.012-7.9 4.418 0 8.011 3.544 8.011 7.9s-3.593 7.898-8.011 7.898c-4.418 0-8.012-3.542-8.012-7.898zm2.182 0c0 3.17 2.615 5.75 5.83 5.75s5.83-2.58 5.83-5.75c0-3.169-2.616-5.748-5.83-5.748s-5.83 2.579-5.83 5.749zm12.08 26.075a1.078 1.078 0 0 1 1.216.934 1.076 1.076 0 0 1-.948 1.2c-.725.09-1.418.202-2.057.336a1.087 1.087 0 0 1-1.295-.827 1.075 1.075 0 0 1 .84-1.277c.7-.147 1.455-.27 2.244-.366zm4.438-.317l2.176-.09c.551-.032 1.112.431 1.139 1.026a1.08 1.08 0 0 1-1.04 1.123l-2.182.089h-.048c-.58 0-1.064-.45-1.088-1.028a1.08 1.08 0 0 1 1.043-1.12zm-14.964 6.278a1.067 1.067 0 0 1-.214 1.506c-.601.448-1.224.878-1.849 1.278a1.102 1.102 0 0 1-1.509-.316 1.067 1.067 0 0 1 .32-1.489 28.918 28.918 0 0 0 1.724-1.19 1.105 1.105 0 0 1 1.528.21zm22.867-7.367a1.103 1.103 0 0 1 1.528.21 1.066 1.066 0 0 1-.212 1.505l-.146.106c-.621.43-1.367.73-2.286.917a1.088 1.088 0 0 1-1.29-.835 1.075 1.075 0 0 1 .849-1.271c.62-.126 1.099-.311 1.468-.566zm-39.368 9.528a4.229 4.229 0 0 0 .014.686 1.082 1.082 0 0 1-1.087 1.185 1.085 1.085 0 0 1-1.084-.966 6.79 6.79 0 0 1-.023-1.01 7.092 7.092 0 0 1 .245-1.511c.157-.575.76-.917 1.337-.757.582.155.926.745.768 1.318-.096.351-.153.707-.17 1.055zm40.19-16.61c-.08.588-.615.998-1.228.922a4.311 4.311 0 0 0-1.717.131 1.088 1.088 0 0 1-1.345-.743 1.07 1.07 0 0 1 .752-1.326 6.5 6.5 0 0 1 2.602-.194c.597.08 1.016.62.935 1.21zm1.342 3.572l.003-.126c0-.246-.048-.499-.142-.749a1.07 1.07 0 0 1 .644-1.381 1.096 1.096 0 0 1 1.401.634 4.235 4.235 0 0 1 .27 1.766 4.528 4.528 0 0 1-.2 1.035 1.087 1.087 0 0 1-1.363.71 1.072 1.072 0 0 1-.72-1.344c.059-.188.094-.367.107-.545zm-30.51 14.396a1.068 1.068 0 0 1-.523 1.43c-.685.316-1.383.611-2.075.874a1.091 1.091 0 0 1-1.41-.616 1.07 1.07 0 0 1 .623-1.39c.645-.246 1.296-.52 1.935-.816a1.094 1.094 0 0 1 1.45.518zm-10.348-5.556a1.066 1.066 0 0 1 .435-1.458 4.893 4.893 0 0 1 1.795-.56c.317-.035.647-.033.972.009.597.077 1.016.617.938 1.206a1.078 1.078 0 0 1-1.224.925 1.795 1.795 0 0 0-.443-.002c-.344.036-.679.142-.993.31a1.102 1.102 0 0 1-1.48-.43zm-.05 7.682a1.089 1.089 0 0 1 1.33-.77c.142.036.286.063.43.08.44.053.886.04 1.326-.015.6-.073 1.142.343 1.218.932a1.077 1.077 0 0 1-.945 1.201 8.207 8.207 0 0 1-1.025.067c-.28 0-.56-.018-.839-.05a5.514 5.514 0 0 1-.713-.134 1.076 1.076 0 0 1-.782-1.311z"/></defs><g><g transform="translate(-1370 -4295)"><use xlink:href="#nqxba"/></g></g></svg>