<svg xmlns="http://www.w3.org/2000/svg" xmlns:xlink="http://www.w3.org/1999/xlink" width="60" height="60" viewBox="0 0 60 60"><defs><path id="tg4ga" d="M521 4338v-6c0-.6.4-1 1-1s1 .4 1 1v6c0 .6-.4 1-1 1s-1-.4-1-1zm6 0v-6c0-.6.4-1 1-1s1 .4 1 1v6c0 .6-.4 1-1 1s-1-.4-1-1zm28-14c0 3.778-.71 7.4-2 10.737v.063l-.1.2a29.26 29.26 0 0 1-4.686 8h.086l-1.6 1.7c-4.536 4.774-10.338 7.836-16.7 8.889v.01l-.197.023a30.524 30.524 0 0 1-5.386.37 30.524 30.524 0 0 1-4.22-.37l-.197-.022v-.011c-6.363-1.053-12.165-4.116-16.7-8.89l-1.6-1.7h.086a29.255 29.255 0 0 1-4.686-8l-.1-.2v-.062a29.679 29.679 0 0 1-1.137-3.61l-.063-.128a23.288 23.288 0 0 1-.53-2.99 29.94 29.94 0 0 1-.27-4.01c0-16.5 13.5-30 30-30s30 13.5 30 30zm-57.45 5.51l6.904-8.651c-.667-.968-1.152-1.756-1.454-2.36-.6 1.1-1.5 2.6-3.1 4.6-1.2 1.4-2.3 2.8-2.7 4.2.011.112.024.223.037.335.083.632.188 1.257.312 1.876zm1.378 1.364c.237.058.494.098.768.115l8.546-4.807c-.52-.926-1.281-1.887-2.042-2.883l-.2-.3-.341-.458zM513 4335h2.3c.085 0 .162-.003.233-.009.081-.04.17-.071.267-.09.2-.1.4-.1.7-.7a2.87 2.87 0 0 0 .082-.184c.01-.023.02-.047.028-.07.01-.026.017-.051.026-.077.169-.513.126-1.009-.078-1.533-.238-.586-.696-1.233-1.358-2.036a4.402 4.402 0 0 1-.11-.23l-.29-.37-.2-.2c-1-1.3-1.6-2.3-2.1-3-.4.8-1.1 1.8-2.1 3-1.7 2-2.5 3.4-1.8 4.7.3.7 1.3.8 1.7.8h.7v-2c0-.6.4-1 1-1s1 .4 1 1zm-4 2v6h6v-6zm-.253-8.739l-4.87 2.74h2.937c.527-1.088 1.32-2.03 1.933-2.74zm-4.266 14.74H507v-7.368a2.665 2.665 0 0 1-.3-.533 4.095 4.095 0 0 1-.442-2.1H499v1.362a28.147 28.147 0 0 0 5.481 8.638zm23.519 8c0-1.7-1.3-3-3-3s-3 1.3-3 3v.8c2 .2 4 .2 6 0zm15.467-6h-36.935a27.956 27.956 0 0 0 13.468 6.549v-.55c0-2.8 2.2-5 5-5s5 2.2 5 5v.55a27.956 27.956 0 0 0 13.467-6.55zm-25.267-9.9c-.282.564-.629 1.096-1.2 1.453V4343h16v-6.382c-.63-.346-1.002-.881-1.3-1.417-1.128-2.255.002-4.21 1.3-5.928V4326h-16v3.297c.876 1.157 1.67 2.42 1.702 3.81a3.702 3.702 0 0 1-.502 1.992zm6.8-24.1l-7.262 13H524v-2c0-.6.4-1 1-1s1 .4 1 1v2h6.262zm0-2c1.7 0 3-1.3 3-3s-1.3-3-3-3-3 1.3-3 3 1.3 3 3 3zm16.5 25.2c.12-.24.192-.48.222-.722.016-.34-.057-.694-.222-1.078l-.142-.4c-.413-.819-1.046-1.7-1.758-2.5-.1-.1-.2-.2-.2-.3l-.228-.304a16.556 16.556 0 0 1-1.672-2.397c-.4.8-1.1 1.8-2 3l-.2.2c-1.5 1.9-2.4 3.2-1.7 4.5.185.37.332.587.58.7h.02a.947.947 0 0 1 .17.062c.12.027.26.038.43.038h2.2v-2c0-.6.4-1 1-1s1 .4 1 1v2h.8c.4 0 1.4-.1 1.7-.8zm-6.5 2.8v6h6v-6zm16-4h-7.3c.1.7-.1 1.5-.4 2.1a1.284 1.284 0 0 1-.2.296c-.031.054-.065.106-.1.158V4343h2.519a28.144 28.144 0 0 0 5.48-8.638zm1.8-5.7c-.4-1.4-1.5-2.8-2.7-4.2-1.6-2-2.6-3.5-3.1-4.6-.6 1.1-1.5 2.6-3 4.5l-.2.3c-1.3 1.7-2.6 3.3-2.7 4.8l.1.1c.6.8 1.4 1.8 1.9 2.8h2.9v-3c0-.6.4-1 1-1s1 .4 1 1v3h2c.985 0 1.775-.292 2.276-.682.205-.88.368-1.776.487-2.684.013-.112.026-.223.037-.334zm.195-3.728C552.763 4308.367 540.257 4296 525 4296c-15.222 0-27.706 12.31-27.993 27.466.41-.567.851-1.123 1.293-1.667 2.4-2.8 3.1-4.6 3.4-5.4.3-.5.5-1.1 1.3-1.2.7 0 1 .6 1.2 1.1.4.8 1.1 2.6 3.4 5.4l.2.3c1.012 1.329 2.023 2.617 2.605 3.966l.005.006c.522-.838.774-1.424.89-1.772.1-.4.4-1 1.1-1 .7 0 1 .6 1.2 1 .222.445.554 1.272 1.4 2.523v-1.723c0-.35.138-.632.372-.806l7.602-13.61c-1.765-.764-2.974-2.509-2.974-4.583 0-2.457 1.694-4.452 4-4.904V4298c0-.6.4-1 1-1s1 .4 1 1v3.097c2.307.452 4 2.446 4 4.903 0 2.074-1.208 3.818-2.972 4.583l7.682 13.678c.184.175.29.43.29.739v1.672c.773-1.167 1.087-1.947 1.3-2.372.2-.4.5-1 1.2-1s1 .6 1.1 1c.12.36.388.978.951 1.869.574-1.388 1.611-2.708 2.649-4.07l.2-.3c2.2-2.9 3-4.6 3.4-5.4.2-.5.5-1.1 1.2-1.1s1 .6 1.2 1.1c.3.8 1.1 2.6 3.4 5.4.47.578.951 1.169 1.395 1.773z"/></defs><g><g transform="translate(-495 -4294)"><use xlink:href="#tg4ga"/></g></g></svg>