<svg xmlns="http://www.w3.org/2000/svg" xmlns:xlink="http://www.w3.org/1999/xlink" width="30" height="30" viewBox="0 0 30 30"><defs><path id="gci1a" d="M973.203 4612.073c.64.633.977 1.386.977 2.171 0 .779-.33 1.539-.958 2.191-.273.285-.552.557-.824.817-.4.386-.78.747-1.11 1.146-.006.012-.019.019-.025.031-.964 1.045-2.194 1.57-3.66 1.57-.126 0-.265-.006-.399-.012-2.175-.14-4.121-.956-5.58-1.646-3.817-1.843-7.159-4.458-9.936-7.77-2.29-2.747-3.824-5.312-4.851-8.078-.418-1.128-.964-2.85-.812-4.699a4.629 4.629 0 0 1 1.376-2.944l2.156-2.171.013-.013c.634-.608 1.382-.931 2.156-.931.774 0 1.51.323 2.124.931.412.38.812.785 1.192 1.178.19.202.394.405.59.601l1.731 1.728c1.332 1.33 1.332 3.052 0 4.382-.177.177-.355.361-.533.538-.469.475-.95.969-1.47 1.444.386.855.919 1.697 1.711 2.697 1.637 2.007 3.342 3.559 5.22 4.75.183.113.399.22.627.335.158.082.323.164.488.253l2.004-1.995c.64-.64 1.389-.975 2.169-.975.786 0 1.528.342 2.143.982zm-1.217 1.196l-3.494-3.489-.013-.012c-.197-.216-.52-.463-.913-.463-.4 0-.742.26-.958.475l-2.168 2.166c-.108.107-.438.437-.964.437-.21 0-.412-.05-.628-.159-.025-.012-.05-.031-.076-.044a8.039 8.039 0 0 0-.628-.335c-.253-.127-.52-.26-.78-.425-2.035-1.285-3.88-2.963-5.63-5.116l-.007-.006c-.964-1.222-1.598-2.248-2.048-3.337l-.019-.057c-.114-.36-.216-.892.33-1.437.006-.013.019-.019.031-.032.552-.494 1.06-1 1.592-1.545.184-.177.361-.36.545-.544.672-.671.672-1.292 0-1.963l-1.73-1.729c-.204-.209-.407-.41-.603-.614a31.59 31.59 0 0 0-1.142-1.133l-.019-.019c-.202-.203-.526-.443-.925-.443-.324 0-.654.158-.964.45l-2.162 2.158a2.905 2.905 0 0 0-.876 1.88c-.095 1.16.12 2.388.71 3.964.958 2.584 2.404 4.99 4.566 7.592 2.619 3.122 5.77 5.585 9.36 7.32 1.312.626 3.062 1.36 4.946 1.481.095.007.196.007.291.007.99 0 1.744-.324 2.384-1.007.394-.462.812-.874 1.224-1.266.273-.267.527-.507.774-.773-.006.006-.006 0 0 0 .647-.671.647-1.336-.006-1.982zm-10.463-17.12a.86.86 0 0 1 .99-.697 9.784 9.784 0 0 1 5.294 2.741 9.761 9.761 0 0 1 2.745 5.288.856.856 0 0 1-.703.987c-.051.006-.096.013-.146.013a.85.85 0 0 1-.844-.71 8.066 8.066 0 0 0-2.27-4.368 8.044 8.044 0 0 0-4.375-2.267.846.846 0 0 1-.691-.988zm13.766 8.06c-.05.006-.095.012-.146.012a.85.85 0 0 1-.843-.709 14.336 14.336 0 0 0-4.04-7.781 14.413 14.413 0 0 0-7.792-4.034.852.852 0 1 1 .279-1.684c3.31.564 6.322 2.12 8.719 4.514a16.058 16.058 0 0 1 4.52 8.707.839.839 0 0 1-.697.974z"/></defs><g><g transform="translate(-946 -4590)"><use xlink:href="#gci1a"/></g></g></svg>