<svg xmlns="http://www.w3.org/2000/svg" xmlns:xlink="http://www.w3.org/1999/xlink" width="30" height="30" viewBox="0 0 30 30"><defs><path id="dxz2a" d="M1270 4604.983c0 2.035-.401 3.985-1.198 5.843-1.581 3.69-4.27 6.39-7.988 7.976a14.74 14.74 0 0 1-5.839 1.197c-2.033 0-3.966-.4-5.823-1.197-3.687-1.583-6.387-4.28-7.971-7.976a14.694 14.694 0 0 1-1.181-5.843c0-2.035.387-3.974 1.18-5.826 1.585-3.695 4.285-6.377 7.972-7.959a14.584 14.584 0 0 1 5.823-1.198c2.034 0 3.981.405 5.84 1.198 3.718 1.587 6.406 4.27 7.987 7.96a14.602 14.602 0 0 1 1.198 5.825zm-1.821 0c0-2.38-.59-4.579-1.771-6.597a13.203 13.203 0 0 0-4.823-4.809c-2.02-1.178-4.231-1.772-6.61-1.772-2.378 0-4.576.59-6.593 1.772a13.171 13.171 0 0 0-4.806 4.81c-1.17 2.014-1.755 4.217-1.755 6.596 0 1.79.337 3.515 1.033 5.137.698 1.628 1.632 3.044 2.805 4.218 1.173 1.173 2.575 2.1 4.199 2.806 1.624.706 3.33 1.05 5.118 1.05 2.378 0 4.59-.594 6.61-1.772a13.166 13.166 0 0 0 4.822-4.808c1.184-2.033 1.771-4.251 1.771-6.63zm-7.66 4.497a.885.885 0 0 1 0 1.28c-.327.329-.934.329-1.262 0l-4.905-4.907a.858.858 0 0 1-.246-.738c0-.05-.033-.115-.033-.132v-8.632c0-.509.427-.92.902-.92.509 0 .952.411.952.92v8.501z"/></defs><g><g transform="translate(-1240 -4590)"><use xlink:href="#dxz2a"/></g></g></svg>